<svg height="511pt" viewBox="-16 0 511 511.99981" width="511pt" xmlns="http://www.w3.org/2000/svg" id="leaf"><path d="m461.824219 10.125c-2.109375-6.152344-7.089844-10.269531-14.457031-10.12109375-6.359376.11718775-156.753907 3.89453175-222.15625 97.30859375-23.820313 34.011719-35.289063 78.339844-34.101563 131.730469l78.878906 115.621093c.808594 0 1.628907-.058593 2.445313-.191406 56.339844-9.242187 132.246094-32.753906 173.949218-92.3125 65.40625-93.382812 17.523438-236 15.441407-242.035156zm0 0" fill="#70da40"/><path d="m446.386719 252.160156c65.402343-93.382812 17.519531-236 15.4375-242.035156-1.019531-2.972656-2.71875-5.464844-5.027344-7.238281l-212.699219 303.828125 25.890625 37.949218c.808594 0 1.628907-.058593 2.445313-.191406 56.339844-9.242187 132.246094-32.753906 173.953125-92.3125zm0 0" fill="#56c225"/><path d="m387.410156 102.003906c-6.769531-4.730468-16.144531-3.105468-20.886718 3.691406l-65.257813 93.207032-8.453125-47.898438c-1.4375-8.175781-9.257812-13.683594-17.375-12.160156-8.160156 1.4375-13.605469 9.214844-12.15625 17.375l13.652344 77.433594-32.917969 47.015625c-4.742187 6.785156-3.101563 16.128906 3.691406 20.890625 2.609375 1.832031 5.613281 2.710937 8.585938 2.710937 4.730469 0 9.390625-2.226562 12.304687-6.402343l32.90625-47 77.441406-13.660157c8.15625-1.433593 13.605469-9.210937 12.15625-17.371093-1.4375-8.171876-9.230468-13.667969-17.375-12.15625l-47.898437 8.445312 65.273437-93.230469c4.746094-6.785156 3.105469-16.128906-3.691406-20.890625zm0 0" fill="#56c225"/><path d="m247.710938 301.558594c2.605468 1.828125 5.609374 2.707031 8.582031 2.707031 4.730469 0 9.390625-2.226563 12.304687-6.398437l32.910156-47 77.4375-13.660157c8.15625-1.433593 13.605469-9.214843 12.15625-17.371093-1.433593-8.175782-9.226562-13.667969-17.371093-12.160157l-47.902344 8.449219 65.273437-93.230469c4.746094-6.785156 3.105469-16.128906-3.691406-20.890625zm0 0" fill="#49a520"/><path d="m251.1875 490.125 22.671875 4.472656c4.800781-16.796875 16.5-61.296875 16.5-111.097656 0-41.398438-8.097656-87-34.496094-124.800781-65.402343-93.296875-215.699219-97.199219-222-97.199219-6.300781.601562-12.601562 3.902344-14.699219 10.203125-1.800781 6-49.800781 148.5 15.597657 242.097656 57.601562 82.199219 181.5 96.097657 214.199219 97.898438zm0 0" fill="#90e36a"/><path d="m25.5 164.132812c-2.886719 1.699219-5.214844 4.199219-6.335938 7.570313-1.800781 6-49.800781 148.5 15.597657 242.097656 57.601562 82.199219 181.5 96.097657 214.199219 97.898438l2.179687-21.125zm0 0" fill="#70da40"/><path d="m273.859375 494.597656c-1.199219 3.902344-2.097656 6.601563-2.398437 7.203125-2.101563 6-7.800782 10.199219-14.402344 10.199219 0 0 0 0-.296875 0-.601563 0-3.300781 0-7.800781-.300781l-69.300782-100.296875-77.398437-13.800782c-8.101563-1.199218-13.800781-9-12.300781-17.101562 1.5-8.398438 9.300781-13.800781 17.402343-12.300781l47.996094 8.402343-65.398437-93.300781c-4.796876-6.597656-3-15.898437 3.601562-20.699219 6.898438-4.800781 16.199219-3.300781 21 3.597657l65.398438 93.300781 8.402343-48c1.5-8.101562 9-13.5 17.398438-12 8.101562 1.199219 13.5 9 12 17.097656l-13.5 77.703125zm0 0" fill="#70da40"/><path d="m93.5625 262.601562c-6.601562 4.800782-8.398438 14.101563-3.601562 20.699219l65.398437 93.296875-47.996094-8.398437c-8.101562-1.5-15.902343 3.902343-17.402343 12.300781-1.5 8.101562 4.199218 15.898438 12.300781 17.097656l77.398437 13.800782 69.300782 100.300781c4.5.300781 7.203124.300781 7.800781.300781h.296875c2.726562 0 5.289062-.726562 7.519531-1.988281zm0 0" fill="#56c225"/></svg>